# xmcd
#
# Track frame offsets:
#	150
#	33062
#	63580
#	105735
#	147567
#
# Disc length: 2275 seconds
#
# Revision: 1
# Processed by: cddbd v1.5.2PL0 Copyright (c) Steve Scherf et al.
# Submitted via: audiograbber 1.83.01
#
DISCID=4208e105
DTITLE=Grateful Dead - 82-09-21 Madison Square Garden, New York NY
DYEAR=1900
DGENRE=
TTITLE0=Throwing Stones
TTITLE1=Not Fade Away
TTITLE2=Black Peter
TTITLE3=Good Lovin
TTITLE4=US Blues
EXTD=
EXTT0=
EXTT1=
EXTT2=
EXTT3=
EXTT4=
PLAYORDER=
